<svg width="256" height="256" viewBox="0 0 256 256" fill="none" xmlns="http://www.w3.org/2000/svg">
<path fill-rule="evenodd" clip-rule="evenodd" d="M128 256C198.692 256 256 198.692 256 128C256 57.3076 198.692 0 128 0C57.3076 0 0 57.3076 0 128C0 178.86 29.6634 222.792 72.6333 243.439V79.9427H110.516V92.0846C114.563 87.5516 119.096 84.071 124.115 81.6426C129.295 79.2142 134.881 78 140.871 78C151.07 78 160.379 80.8331 168.797 86.4993C177.215 92.1655 183.934 99.8554 188.953 109.569C193.971 119.282 196.48 130.291 196.48 142.595C196.48 154.737 193.971 165.745 188.953 175.621C183.934 185.334 177.215 193.024 168.797 198.69C160.379 204.357 151.07 207.19 140.871 207.19C135.366 207.19 130.105 206.137 125.086 204.033C120.229 201.766 115.858 198.69 111.973 194.805V255.006C117.223 255.662 122.572 256 128 256ZM145.727 171.978C141.842 174.73 137.147 176.106 131.643 176.106C127.919 176.106 124.358 175.459 120.958 174.164C117.72 172.707 114.725 170.764 111.973 168.336V116.854C114.725 114.426 117.72 112.564 120.958 111.269C124.358 109.812 127.919 109.083 131.643 109.083C137.147 109.083 141.842 110.459 145.727 113.211C149.613 115.964 152.608 119.849 154.712 124.868C156.817 129.886 157.869 135.795 157.869 142.595C157.869 149.232 156.817 155.141 154.712 160.322C152.608 165.341 149.613 169.226 145.727 171.978Z" fill="#F6F6F6"/>
</svg>
