<svg width="48" height="48" viewBox="0 0 48 48" fill="none" xmlns="http://www.w3.org/2000/svg">
<mask id="mask0_988_265" style="mask-type:alpha" maskUnits="userSpaceOnUse" x="0" y="0" width="48" height="48">
<rect width="48" height="48" fill="#D9D9D9"/>
</mask>
<g mask="url(#mask0_988_265)">
<path d="M21.9998 42.3186C17.8628 41.8026 14.4274 40.0024 11.6938 36.9181C8.9601 33.8337 7.59326 30.2024 7.59326 26.0241C7.59326 23.8001 8.02659 21.6677 8.89326 19.6271C9.75993 17.5867 10.9933 15.7926 12.5933 14.2446L15.8378 17.4771C14.6268 18.5947 13.7083 19.8856 13.0823 21.3496C12.4563 22.8136 12.1433 24.3718 12.1433 26.0241C12.1433 28.9254 13.0646 31.4833 14.9073 33.6976C16.7499 35.9116 19.1141 37.2646 21.9998 37.7566V42.3186ZM25.9998 42.3186V37.7566C28.8598 37.2393 31.2176 35.8779 33.0733 33.6726C34.9286 31.4669 35.8563 28.9174 35.8563 26.0241C35.8563 22.7784 34.7314 20.0087 32.4818 17.7151C30.2321 15.4217 27.4884 14.2433 24.2508 14.1796H24.0533L26.3248 16.4511L23.3933 19.3826L15.8313 11.8206L23.3933 4.24658L26.3248 7.17808L23.8858 9.61758H24.0953C28.6496 9.61758 32.5068 11.2114 35.6668 14.3991C38.8264 17.5867 40.4063 21.4618 40.4063 26.0241C40.4063 30.1691 39.0394 33.7858 36.3058 36.8741C33.5721 39.9624 30.1368 41.7773 25.9998 42.3186Z" fill="#F6F6F6"/>
</g>
</svg>
